<svg width="14" height="18" viewBox="0 0 14 18" fill="none" xmlns="http://www.w3.org/2000/svg">
<path d="M3.52632 6.89474H1.5C1.22386 6.89474 1 7.11859 1 7.39474V16.5C1 16.7761 1.22386 17 1.5 17H12.2895C12.5656 17 12.7895 16.7761 12.7895 16.5V7.39474C12.7895 7.11859 12.5656 6.89474 12.2895 6.89474H10.2632M3.52632 6.89474V3.5677C3.52632 3.54016 3.52834 3.5133 3.53343 3.48624C3.69422 2.63199 4.57368 1 6.89474 1C9.17895 1 10.067 2.5806 10.2478 3.44498C10.2591 3.4989 10.2632 3.554 10.2632 3.60908V6.89474M3.52632 6.89474H10.2632" stroke="#757575" stroke-width="1.5"/>
<path d="M6 12H8" stroke="#757575" stroke-width="9" stroke-linecap="square" stroke-linejoin="round"/>
</svg>
